<svg width="30" height="30" viewBox="0 0 30 30" fill="none" xmlns="http://www.w3.org/2000/svg">
<path d="M9.5998 1.8C5.2993 1.8 1.7998 5.29949 1.7998 9.6V20.4C1.7998 24.7005 5.2993 28.2 9.5998 28.2H20.3998C24.7003 28.2 28.1998 24.7005 28.1998 20.4V9.6C28.1998 5.29949 24.7003 1.8 20.3998 1.8H9.5998ZM9.5998 3H20.3998C24.0517 3 26.9998 5.94811 26.9998 9.6V20.4C26.9998 24.0519 24.0517 27 20.3998 27H9.5998C5.94791 27 2.9998 24.0519 2.9998 20.4V9.6C2.9998 5.94811 5.94791 3 9.5998 3ZM22.1998 6.6C21.8815 6.6 21.5763 6.72643 21.3513 6.95147C21.1262 7.17652 20.9998 7.48174 20.9998 7.8C20.9998 8.11826 21.1262 8.42348 21.3513 8.64853C21.5763 8.87357 21.8815 9 22.1998 9C22.5181 9 22.8233 8.87357 23.0483 8.64853C23.2734 8.42348 23.3998 8.11826 23.3998 7.8C23.3998 7.48174 23.2734 7.17652 23.0483 6.95147C22.8233 6.72643 22.5181 6.6 22.1998 6.6ZM14.9998 8.4C11.3618 8.4 8.39981 11.362 8.39981 15C8.39981 18.638 11.3618 21.6 14.9998 21.6C18.6378 21.6 21.5998 18.638 21.5998 15C21.5998 11.362 18.6378 8.4 14.9998 8.4ZM14.9998 9.6C17.9893 9.6 20.3998 12.0106 20.3998 15C20.3998 17.9894 17.9893 20.4 14.9998 20.4C12.0104 20.4 9.5998 17.9894 9.5998 15C9.5998 12.0106 12.0104 9.6 14.9998 9.6Z" fill="black"/>
</svg>
